<?xml version="1.0" encoding="utf-8"?>
<!-- Generator: Adobe Illustrator 21.0.2, SVG Export Plug-In . SVG Version: 6.00 Build 0)  -->
<svg version="1.1" id="Capa_1" xmlns="http://www.w3.org/2000/svg" xmlns:xlink="http://www.w3.org/1999/xlink" x="0px" y="0px"
	 viewBox="0 0 512 512" style="enable-background:new 0 0 512 512;" xml:space="preserve">
<style type="text/css">
	.st0{fill:none;stroke:#525252;stroke-width:14;stroke-miterlimit:10;}
	.st1{fill:#525252;}
</style>
<circle class="st0" cx="256" cy="246.5" r="208"/>
<path id="XMLID_2112_" class="st1" d="M124,347c26,16.6,56.8,26.4,89.9,26.4c108.9,0,170.5-92,166.8-174.5
	c11.5-8.3,21.4-18.6,29.3-30.4c-10.5,4.7-21.8,7.8-33.7,9.2c12.1-7.2,21.4-18.7,25.8-32.5c-11.3,6.7-23.9,11.6-37.3,14.2
	c-10.7-11.4-26-18.5-42.8-18.5c-37.9,0-65.7,35.3-57.2,72c-48.8-2.4-92-25.8-120.9-61.3c-15.4,26.4-8,60.9,18.2,78.3
	c-9.6-0.3-18.7-3-26.6-7.3c-0.6,27.2,18.8,52.6,47.1,58.3c-8.3,2.2-17.3,2.8-26.5,1c7.5,23.3,29.1,40.3,54.8,40.8
	C186.2,342,155.1,350.6,124,347z"/>
</svg>
